<?xml version="1.0" encoding="UTF-8" standalone="no"?>
<svg
   xmlns:dc="http://purl.org/dc/elements/1.1/"
   xmlns:cc="http://creativecommons.org/ns#"
   xmlns:rdf="http://www.w3.org/1999/02/22-rdf-syntax-ns#"
   xmlns:svg="http://www.w3.org/2000/svg"
   xmlns="http://www.w3.org/2000/svg"
   xmlns:sodipodi="http://sodipodi.sourceforge.net/DTD/sodipodi-0.dtd"
   xmlns:inkscape="http://www.inkscape.org/namespaces/inkscape"
   width="100"
   height="100"
   viewBox="0 0 26.458333 26.458334"
   version="1.1"
   id="svg8"
   inkscape:version="1.0 (b51213c273, 2020-08-10)"
   sodipodi:docname="logo.svg">
  <defs
     id="defs2" />
  <sodipodi:namedview
     id="base"
     pagecolor="#ffffff"
     bordercolor="#666666"
     borderopacity="1.0"
     inkscape:pageopacity="0.0"
     inkscape:pageshadow="2"
     inkscape:zoom="5.3645454"
     inkscape:cx="25.871032"
     inkscape:cy="37.819318"
     inkscape:document-units="mm"
     inkscape:current-layer="layer1"
     inkscape:document-rotation="0"
     showgrid="false"
     units="px"
     inkscape:window-width="1528"
     inkscape:window-height="1016"
     inkscape:window-x="50"
     inkscape:window-y="27"
     inkscape:window-maximized="0" />
  <metadata
     id="metadata5">
    <rdf:RDF>
      <cc:Work
         rdf:about="">
        <dc:format>image/svg+xml</dc:format>
        <dc:type
           rdf:resource="http://purl.org/dc/dcmitype/StillImage" />
        <dc:title></dc:title>
      </cc:Work>
    </rdf:RDF>
  </metadata>
  <g
     inkscape:groupmode="layer"
     id="layer2"
     inkscape:label="Back">
    <circle
       id="path72"
       cx="-12.619614"
       cy="13.262336"
       r="10.096197"
       style="display:inline;fill:#a7ff74;fill-opacity:1;stroke-width:0.239822"
       transform="scale(-1,1)" />
  </g>
  <g
     inkscape:label="Layer 1"
     inkscape:groupmode="layer"
     id="layer1"
     style="display:inline">
    <g
       id="g70"
       transform="translate(2.9057556,1.2399962)"
       style="stroke-width:1.1;stroke-miterlimit:4;stroke-dasharray:none;fill:#ffffff;fill-opacity:1">
      <path
         style="fill:#ffffff;stroke:#000000;stroke-width:0.8;stroke-linecap:butt;stroke-linejoin:miter;stroke-opacity:1;stroke-miterlimit:4;stroke-dasharray:none;fill-opacity:1"
         d="m 14.314783,2.3365289 c 0,0 -0.142171,-0.5294601 0.04275,-0.7819167 0.184927,-0.2524565 0.621188,-0.2824571 0.792698,0.014028 0.17151,0.2964856 0.18011,0.8556589 0.18011,0.8556589 l 0.104757,5.1046342 0.30615,0.053458 c 0,0 0.0628,0.2009754 -0.18701,0.2196666 -0.249811,0.01869 -1.523892,0.017372 -1.523892,0.017372 0,0 -0.559699,-0.2051121 -0.234281,-0.3708942 0.325419,-0.1657818 0.377587,-0.090291 0.377587,-0.090291 z"
         id="path26" />
      <path
         style="fill:#ffffff;stroke:#000000;stroke-width:1.1;stroke-linecap:butt;stroke-linejoin:miter;stroke-opacity:1;stroke-miterlimit:4;stroke-dasharray:none;fill-opacity:1"
         d="M 14.030346,7.8194299 13.53885,15.467145 c 0,0 -0.04574,2.714734 0.827609,3.675816 0.873344,0.961081 4.824525,0.644768 4.824525,0.644768 0,0 -0.502963,-0.06985 -1.290031,-0.546604 -0.787068,-0.476758 -0.444022,-0.531318 -0.444022,-0.531318 0,0 0.773913,0.739228 1.633953,0.607335 0.860041,-0.131893 1.263164,-0.920829 1.263164,-0.920829 0,0 -1.405135,0.908243 -2.691645,-0.265499 -1.286511,-1.173741 -0.780402,-1.003808 -0.780402,-1.003808 0,0 1.259982,1.657368 2.535149,0.919177 1.275167,-0.738191 0.941854,-1.113874 0.941854,-1.113874 0,0 -1.026847,2.095564 -2.954467,-0.119015 -1.92762,-2.214579 -1.969439,-9.2843608 -1.969439,-9.2843608 z"
         id="path28" />
      <path
         style="fill:#ffffff;stroke:#000000;stroke-width:1.1;stroke-linecap:butt;stroke-linejoin:miter;stroke-opacity:1;stroke-miterlimit:4;stroke-dasharray:none;fill-opacity:1"
         d="m 16.38808,19.646369 c 0,0 -1.201019,-1.220383 -1.535174,-2.680858"
         id="path30" />
      <path
         style="fill:#ffffff;stroke:#000000;stroke-width:1.1;stroke-linecap:butt;stroke-linejoin:miter;stroke-opacity:1;stroke-miterlimit:4;stroke-dasharray:none;fill-opacity:1"
         d="m 14.173652,7.3582447 1.567596,0.2241465 -1.710902,0.2370387 z"
         id="path32" />
      <path
         style="fill:#ffffff;stroke:#000000;stroke-width:1.1;stroke-linecap:butt;stroke-linejoin:miter;stroke-opacity:1;stroke-miterlimit:4;stroke-dasharray:none;fill-opacity:1"
         d="m 14.415749,3.7281146 1.023273,0.096059"
         id="path34" />
      <path
         style="fill:#ffffff;stroke:#000000;stroke-width:1.1;stroke-linecap:butt;stroke-linejoin:miter;stroke-opacity:1;stroke-miterlimit:4;stroke-dasharray:none;fill-opacity:1"
         d="m 14.198172,4.7876787 1.342675,0.066507"
         id="path36" />
    </g>
    <text
       xml:space="preserve"
       style="font-style:normal;font-weight:normal;font-size:8.98331px;line-height:1.25;font-family:sans-serif;fill:#ffffff;fill-opacity:1;stroke:#000000;stroke-width:1.125;stroke-miterlimit:4;stroke-dasharray:none;stroke-opacity:1"
       x="3.3040576"
       y="19.345125"
       id="text48"><tspan
         sodipodi:role="line"
         id="tspan46"
         x="3.3040576"
         y="19.345125"
         style="font-size:16.7689px;fill:#ffffff;fill-opacity:1;stroke:#000000;stroke-width:1.125;stroke-miterlimit:4;stroke-dasharray:none;stroke-opacity:1">C</tspan></text>
  </g>
</svg>
